C:\GBW_MyPrograms\KinderuniversiteitApp\Resultaten\Ellis_1010\Kleuter\Kleuter_v1.mot
version=1
nRows=19
nColumns=29
inDegrees=yes
endheader
                time	         pelvis_tilt	           pelvis_tx	           pelvis_ty	       hip_flexion_l	       hip_flexion_r	        knee_angle_l	        knee_angle_r	       ankle_angle_l	       ankle_angle_r	    lumbar_extension	hamstrings_r/activation	bifemsh_r/activation	glut_max_r/activation	iliopsoas_r/activation	rect_fem_r/activation	  vasti_r/activation	gastroc_r/activation	 soleus_r/activation	tib_ant_r/activation	hamstrings_l/activation	bifemsh_l/activation	glut_max_l/activation	iliopsoas_l/activation	rect_fem_l/activation	  vasti_l/activation	gastroc_l/activation	 soleus_l/activation	tib_ant_l/activation	
          2.42243268	          1.36676095	          1.26047500	          0.89893718	         23.92065208	        -19.76931985	        -10.42034843	        -13.46732654	         -1.41935329	          8.25080982	         -7.40042928	          0.10000566	          0.09996751	          0.21318745	          0.10000566	          0.10000566	          0.10002200	          0.10000566	          0.10000566	          0.10000566	          0.10000566	          0.09996790	          0.10007272	          0.10000565	          0.10000566	          0.10006868	          0.10000566	          0.10000566	          0.10000566	
          2.43858223	          1.35139953	          1.27582397	          0.89695332	         24.30172406	        -19.36601930	        -12.01537727	        -15.52240348	         -2.28513259	          6.59818294	         -7.16178711	          0.10000566	          0.09991971	          0.16777329	          0.10000566	          0.10000566	          0.10011251	          0.10000566	          0.10000566	          0.10000566	          0.10000566	          0.10000227	          0.09990755	          0.10000568	          0.10000566	          0.10002720	          0.10000566	          0.10000566	          0.10000566	
          2.45473178	          1.25159657	          1.29106140	          0.89512663	         24.57266715	        -18.85267877	        -13.40090955	        -17.84582994	         -3.03689418	          4.45296672	         -6.90924465	          0.10000567	          0.09974933	          0.13239462	          0.10000567	          0.10000567	          0.10017717	          0.10000567	          0.10000567	          0.10000563	          0.10000567	          0.09999632	          0.09997337	          0.10000567	          0.10000567	          0.10000635	          0.10000567	          0.10000567	          0.10000567	
          2.47088133	          1.22245142	          1.30635659	          0.89685916	         24.41547593	        -18.51123139	        -14.51424776	        -20.32385716	         -3.67900698	          2.54544958	         -6.90334971	          0.10000567	          0.10022651	          0.14069798	          0.10000567	          0.10000567	          0.09992483	          0.10000567	          0.10000567	          0.10000567	          0.10000567	          0.09998777	          0.10000840	          0.10000567	          0.10000567	          0.10002129	          0.10000567	          0.10000567	          0.10000567	
          2.48703088	          1.15614313	          1.32145694	          0.89722041	         24.32898161	        -17.77344881	        -16.07176644	        -22.98162271	         -4.01670437	          0.43740732	         -6.79862362	          0.10000567	          0.09996258	          0.11096751	          0.10000567	          0.10000567	          0.10000914	          0.10000567	          0.10000567	          0.10000567	          0.10000567	          0.10000433	          0.10000237	          0.10000567	          0.10000567	          0.10000439	          0.10000567	          0.10000567	          0.10000567	
          2.50318043	          1.02886112	          1.33650880	          0.89751883	         24.18729840	        -16.67494488	        -17.33353813	        -25.95593275	         -4.60861725	         -1.76719396	         -6.58616841	          0.10000567	          0.09995166	          0.10747432	          0.10000567	          0.10000567	          0.10001618	          0.10000567	          0.10000567	          0.10000567	          0.10000567	          0.10000452	          0.09999869	          0.10000567	          0.10000567	          0.10000753	          0.10000567	          0.10000567	          0.10000567	
          2.51932998	          0.85384303	          1.35166334	          0.89760311	         23.87392088	        -15.38974060	        -18.29002280	        -28.94792277	         -5.10665030	         -4.24007196	         -6.30900432	          0.10000567	          0.09999152	          0.10285932	          0.10000567	          0.10000567	          0.10000589	          0.10000567	          0.10000567	          0.10000567	          0.10000567	          0.10000600	          0.10000222	          0.10000567	          0.10000567	          0.10000512	          0.10000567	          0.10000567	          0.10000567	
          2.53547954	          0.63370866	          1.36667101	          0.89757225	         23.62610433	        -13.85560683	        -19.35632899	        -32.08106244	         -4.64428315	         -6.21963161	         -5.98087748	          0.10000567	          0.09994366	          0.10608463	          0.10000567	          0.10000567	          0.10000775	          0.10000567	          0.10000567	          0.10000567	          0.10000567	          0.09998940	          0.10001060	          0.10000567	          0.10000567	          0.10000785	          0.10000567	          0.10000567	          0.10000567	
          2.55162909	          0.50273119	          1.38129208	          0.89787599	         23.35710677	        -12.16546102	        -20.50410669	        -35.40089912	         -4.06968967	         -8.34071484	         -5.79851431	          0.10000567	          0.09993638	          0.10404718	          0.10000567	          0.10000567	          0.10000686	          0.10000567	          0.10000567	          0.10000567	          0.10000567	          0.09999020	          0.10000081	          0.10000567	          0.10000567	          0.10000760	          0.10000567	          0.10000567	          0.10000567	
          2.56777864	          0.48113922	          1.39556169	          0.89861862	         22.94992270	        -10.37706765	        -21.57154997	        -38.86463255	         -3.37622917	         -9.96434979	         -5.77447844	          0.10000567	          0.09996853	          0.10226873	          0.10000567	          0.10000567	          0.10000606	          0.10000567	          0.10000567	          0.10000567	          0.10000567	          0.09999277	          0.09999859	          0.10000567	          0.10000567	          0.10000733	          0.10000567	          0.10000567	          0.10000567	
          2.58392819	          0.49305887	          1.40959288	          0.89973146	         22.35140420	         -8.45743717	        -22.33251829	        -42.33537593	         -2.57740696	        -11.36769937	         -5.79782768	          0.10000567	          0.10005475	          0.10101397	          0.10000567	          0.10000567	          0.10000551	          0.10000567	          0.10000567	          0.10000567	          0.10000567	          0.09999248	          0.10000062	          0.10000567	          0.10000567	          0.10000737	          0.10000567	          0.10000567	          0.10000567	
          2.60007774	          0.48087805	          1.42340282	          0.90114285	         21.58137069	         -6.37715079	        -22.71201978	        -45.73148063	         -1.69878475	        -12.35074126	         -5.79786155	          0.10000567	          0.10015202	          0.10042868	          0.10000567	          0.10000567	          0.10000535	          0.10000567	          0.10000567	          0.10000567	          0.10000567	          0.09999008	          0.10000398	          0.10000567	          0.10000567	          0.10000745	          0.10000567	          0.10000567	          0.10000567	
          2.61622729	          0.44642748	          1.43696140	          0.90283663	         20.67681110	         -4.16799188	        -22.76994848	        -48.97770503	         -0.78533055	        -12.90638696	         -5.78351901	          0.10000567	          0.10012601	          0.10030734	          0.10000567	          0.10000567	          0.10000553	          0.10000567	          0.10000567	          0.10000567	          0.10000567	          0.09998634	          0.10000595	          0.10000567	          0.10000567	          0.10000753	          0.10000567	          0.10000567	          0.10000567	
          2.63237684	          0.40378124	          1.45025238	          0.90476040	         19.68506192	         -1.87771077	        -22.61148669	        -52.01969513	          0.12914592	        -13.06161868	         -5.77669966	          0.10000567	          0.09989632	          0.10041419	          0.10000567	          0.10000567	          0.10000570	          0.10000567	          0.10000567	          0.10000567	          0.10000567	          0.09998742	          0.10000537	          0.10000567	          0.10000567	          0.10000716	          0.10000567	          0.10000567	          0.10000567	
          2.64852639	          0.36691777	          1.46330395	          0.90682603	         18.63232744	          0.43673847	        -22.31496126	        -54.80855232	          1.03808152	        -12.82594926	         -5.79265814	          0.10000567	          0.09959979	          0.10045566	          0.10000567	          0.10000567	          0.10000577	          0.10000567	          0.10000567	          0.10000567	          0.10000567	          0.09999908	          0.10000439	          0.10000567	          0.10000567	          0.10000615	          0.10000567	          0.10000567	          0.10000567	
          2.66467595	          0.32276817	          1.47616237	          0.90890518	         17.55623914	          2.74979923	        -21.93220941	        -57.30669101	          1.94398117	        -12.22861348	         -5.81197217	          0.10000567	          0.09949535	          0.10020840	          0.10000567	          0.10000567	          0.10000575	          0.10000567	          0.10000567	          0.10000567	          0.10000567	          0.10002105	          0.09999817	          0.10000567	          0.10000567	          0.10000464	          0.10000567	          0.10000567	          0.10000567	
          2.68082550	          0.25156365	          1.48889451	          0.91089076	         16.48362009	          5.03931473	        -21.48502956	        -59.46658561	          2.84615349	        -11.35645325	         -5.80306661	          0.10000567	          0.09995400	          0.09986420	          0.10000567	          0.10000567	          0.10000567	          0.10000567	          0.10000567	          0.10000567	          0.10000567	          0.10003287	          0.10003515	          0.10000567	          0.10000567	          0.10000384	          0.10000567	          0.10000567	          0.10000567	
          2.69697505	          0.16982564	          1.50158427	          0.91277640	         15.38754464	          7.23578946	        -20.96854805	        -61.22917514	          3.73120619	        -10.25052721	         -5.77340965	          0.10000567	          0.10077010	          0.09976562	          0.10000567	          0.10000567	          0.10000565	          0.10000567	          0.10000567	          0.10000567	          0.10000567	          0.10003208	          0.10003428	          0.10000567	          0.10000567	          0.10000373	          0.10000567	          0.10000567	          0.10000567	
          2.71312460	          0.09372753	          1.51427157	          0.91458398	         14.25104521	          9.29351106	        -20.38610564	        -62.57228895	          4.57168428	         -8.96943197	         -5.73770021	          0.10000567	          0.10040711	          0.09980428	          0.10000567	          0.10000567	          0.10000565	          0.10000567	          0.10000567	          0.10000567	          0.10000567	          0.10002491	          0.10010291	          0.10000567	          0.10000567	          0.10000419	          0.10000567	          0.10000567	          0.10000567	
